# xmcd
#
# Track frame offsets: 
#        150
#        9829
#        20490
#        33626
#        46448
#        59798
#        71118
#        82869
#        93560
#        104006
#        116894
#        128578
#        141344
#        153925
#        172842
#        182440
#        191811
#        205306
#        220694
#        234503
#
# Disc length: 3292 seconds
#
# Revision: 1
# Processed by: cddbd v1.5.2PL0 Copyright (c) Steve Scherf et al.
# Submitted via: ExactAudioCopy v0.95b4
#
DISCID=1b0cda14
DTITLE=Various Artist - 200 Country Classics  -  CD 2
DYEAR=2008
DGENRE=Country
TTITLE0=Frankie Laine - I Believe
TTITLE1=Patsy Cline - I Can See An Angel Walkin'
TTITLE2=Billie Jo Spears - It Coulda Been Me
TTITLE3=Don Williams /Where Do We Go From Here
TTITLE4=Patti Page /Mockin' Bird Hill
TTITLE5=Donna Fargo /Superman
TTITLE6=Johnny Cash /Thanks A Lot
TTITLE7=Justin Tubb - Take A Letter Miss Gray
TTITLE8=Roger Miller - Please Release Me
TTITLE9=Hank Williams - On The Banks Of The Old Pontchartrain
TTITLE10=Lynn Anderson - You're My Man
TTITLE11=Dottie West - I Fall To Pieces
TTITLE12=Roger Miller - The Last Word in Lonesome Is Me
TTITLE13=Alabama - I Want To Be With You Tonight
TTITLE14=Ned Miller - From A Jack To A King
TTITLE15=Charlie Rich - Lonely Weekends
TTITLE16=Wilma Burgess - Baby
TTITLE17=Razzy Bailey - (Let Me Be Your) Teddy Bear
TTITLE18=Jeannie Seely - One Day At A Time
TTITLE19=Connie Smith - The Hurtin's All Over
EXTD=YEAR: 2008
EXTT0=
EXTT1=
EXTT2=
EXTT3=
EXTT4=
EXTT5=
EXTT6=
EXTT7=
EXTT8=
EXTT9=
EXTT10=
EXTT11=
EXTT12=
EXTT13=
EXTT14=
EXTT15=
EXTT16=
EXTT17=
EXTT18=
EXTT19=
PLAYORDER=
